<svg xmlns="http://www.w3.org/2000/svg" viewBox="0 0 1024 1024">
  <defs>
    <linearGradient id="bg" x1="148" x2="876" y1="92" y2="932" gradientUnits="userSpaceOnUse">
      <stop offset="0" stop-color="#D0E6FD"/>
      <stop offset="0.5" stop-color="#FFFFFF"/>
      <stop offset="1" stop-color="#D0E6FD"/>
    </linearGradient>
    <filter id="soft" x="-20%" y="-20%" width="140%" height="140%">
      <feDropShadow dx="0" dy="22" stdDeviation="18" flood-color="#162660" flood-opacity="0.22"/>
    </filter>
  </defs>

  <rect width="1024" height="1024" rx="224" fill="url(#bg)"/>
  <path d="M174 806c154-220 365-405 664-572" fill="none" stroke="#FFFFFF" stroke-width="34" stroke-linecap="round" opacity="0.68"/>

  <g fill="#162660" filter="url(#soft)">
    <g transform="translate(168 640) rotate(-25)">
      <ellipse cx="86" cy="80" rx="74" ry="56"/>
      <circle cx="20" cy="12" r="28"/>
      <circle cx="72" cy="-12" r="30"/>
      <circle cx="130" cy="0" r="28"/>
      <circle cx="166" cy="48" r="25"/>
    </g>

    <g transform="translate(392 458) rotate(-25) scale(.72)">
      <ellipse cx="86" cy="80" rx="74" ry="56"/>
      <circle cx="20" cy="12" r="28"/>
      <circle cx="72" cy="-12" r="30"/>
      <circle cx="130" cy="0" r="28"/>
      <circle cx="166" cy="48" r="25"/>
    </g>

    <g transform="translate(565 320) rotate(-25) scale(.48)">
      <ellipse cx="86" cy="80" rx="74" ry="56"/>
      <circle cx="20" cy="12" r="28"/>
      <circle cx="72" cy="-12" r="30"/>
      <circle cx="130" cy="0" r="28"/>
      <circle cx="166" cy="48" r="25"/>
    </g>
  </g>

  <path d="M724 244c62-56 158-18 143 64-11 62-96 66-113 16-16-47 35-88 93-66" fill="none" stroke="#162660" stroke-width="54" stroke-linecap="round" stroke-linejoin="round" filter="url(#soft)"/>
  <path d="M742 248c50-38 119-12 110 50-8 45-69 48-81 11-11-33 25-62 68-46" fill="none" stroke="#FFFFFF" stroke-width="16" stroke-linecap="round" stroke-linejoin="round" opacity="0.78"/>

  <circle cx="240" cy="228" r="10" fill="#162660" opacity="0.56"/>
  <circle cx="786" cy="164" r="7" fill="#162660" opacity="0.56"/>
</svg>
